<svg width="17" height="18" viewBox="0 0 17 18" fill="none" xmlns="http://www.w3.org/2000/svg">
<mask id="mask0_59_66" style="mask-type:alpha" maskUnits="userSpaceOnUse" x="0" y="0" width="17" height="18">
<path d="M4.97969 0.558861C4.07528 0.601548 3.45756 0.746412 2.91777 0.957923C2.35898 1.17576 1.8853 1.4677 1.41409 1.94084C0.942328 2.41426 0.652607 2.88878 0.436425 3.44813C0.227118 3.98929 0.0852832 4.60731 0.0453451 5.51228C0.00569264 6.41891 -0.00340066 6.70808 0.00101934 9.01625C0.00542234 11.3241 0.0156087 11.6139 0.0588431 12.5208C0.102076 13.4249 0.246399 14.0424 0.457908 14.5824C0.676023 15.1412 0.967661 15.6147 1.44107 16.0861C1.91421 16.5576 2.38901 16.8471 2.94861 17.0636C3.48923 17.2726 4.1075 17.415 5.0122 17.4546C5.91882 17.4946 6.20825 17.5034 8.51584 17.499C10.8245 17.4946 11.114 17.4844 12.0206 17.4414C12.925 17.3982 13.5422 17.2533 14.0825 17.0424C14.6413 16.8237 15.115 16.5326 15.5862 16.0592C16.0574 15.586 16.3471 15.1112 16.5633 14.5516C16.7726 14.011 16.915 13.3927 16.9544 12.4885C16.994 11.5814 17.0034 11.2916 16.999 8.98375C16.9946 6.67558 16.9841 6.38641 16.9412 5.48006C16.8982 4.57508 16.7534 3.9579 16.5421 3.41756C16.3237 2.85877 16.0324 2.38562 15.5592 1.91385C15.0861 1.44264 14.6113 1.15236 14.0517 0.936719C13.5108 0.727409 12.8928 0.584747 11.9881 0.54564C11.0815 0.505432 10.792 0.496624 8.48362 0.501029C6.17576 0.505434 5.88633 0.515351 4.97969 0.558861ZM5.07885 15.9248C4.25016 15.8887 3.80016 15.751 3.50026 15.6356C3.10312 15.4819 2.81974 15.2977 2.52148 15.0016C2.22377 14.7044 2.03897 14.4219 1.88392 14.0256C1.76742 13.7257 1.62725 13.2762 1.58842 12.4475C1.54628 11.5516 1.53665 11.2828 1.53251 9.01321C1.52811 6.74416 1.53636 6.47537 1.57548 5.57865C1.61099 4.75051 1.74953 4.29995 1.86464 4.00031C2.01831 3.60262 2.202 3.31978 2.49862 3.02153C2.79577 2.72326 3.07833 2.53901 3.4749 2.38397C3.77454 2.26691 4.224 2.12783 5.05241 2.08846C5.94884 2.04604 6.21735 2.03695 8.48637 2.03255C10.7559 2.02814 11.0247 2.03613 11.9214 2.07551C12.7496 2.11159 13.2001 2.24874 13.4995 2.36469C13.8969 2.51836 14.1803 2.7015 14.4783 2.99867C14.7762 3.29583 14.961 3.57784 15.1161 3.97525C15.2331 4.27406 15.3722 4.72407 15.4113 5.55221C15.454 6.44866 15.4636 6.71745 15.4678 8.9865C15.4722 11.2561 15.4639 11.5249 15.4245 12.4211C15.3885 13.2498 15.251 13.7 15.1354 14.0002C14.9817 14.3971 14.798 14.6805 14.5011 14.9787C14.2042 15.2759 13.9217 15.4612 13.5248 15.6163C13.2257 15.7331 12.7757 15.8724 11.9479 15.9118C11.0515 15.9539 10.7829 15.9636 8.51309 15.9677C6.24406 15.9721 5.97555 15.9636 5.07885 15.9248ZM12.0082 4.45638C12.0093 5.01931 12.467 5.4751 13.0299 5.474C13.5931 5.4729 14.0489 5.01545 14.0481 4.45253C14.047 3.8896 13.5893 3.43354 13.0261 3.43464C12.4629 3.43574 12.0071 3.89346 12.0082 4.45638ZM4.13561 9.00826C4.14028 11.4189 6.0981 13.3687 8.50813 13.364C10.9184 13.3594 12.8694 11.4021 12.8647 8.99146C12.86 6.58168 10.9019 4.63071 8.49133 4.63539C6.08129 4.64008 4.13092 6.5982 4.13561 9.00826ZM5.66655 9.00523C5.66379 7.44066 6.93009 6.16967 8.49436 6.16692C10.0589 6.16389 11.3302 7.42964 11.3332 8.99449C11.3362 10.5593 10.0699 11.83 8.5051 11.8331C6.94083 11.8361 5.66957 10.5701 5.66655 9.00523Z" fill="#000008"/>
</mask>
<g mask="url(#mask0_59_66)">
<rect x="-0.712158" y="-0.210693" width="18.5087" height="18.5087" fill="black"/>
<g filter="url(#filter0_f_59_66)">
<ellipse cx="2.75209" cy="-0.915219" rx="10.6781" ry="7.47469" transform="rotate(-14.9317 2.75209 -0.915219)" fill="black"/>
</g>
<g filter="url(#filter1_f_59_66)">
<ellipse cx="17.2033" cy="-0.0911293" rx="10.0849" ry="10.0849" fill="black"/>
</g>
<g filter="url(#filter2_f_59_66)">
<circle cx="2.84759" cy="16.3996" r="5.695" fill="black"/>
</g>
</g>
<defs>
<filter id="filter0_f_59_66" x="-44.5956" y="-45.496" width="94.6954" height="89.1615" filterUnits="userSpaceOnUse" color-interpolation-filters="sRGB">
<feFlood flood-opacity="0" result="BackgroundImageFix"/>
<feBlend mode="normal" in="SourceGraphic" in2="BackgroundImageFix" result="shape"/>
<feGaussianBlur stdDeviation="18.425" result="effect1_foregroundBlur_59_66"/>
</filter>
<filter id="filter1_f_59_66" x="-37.5483" y="-54.8427" width="109.503" height="109.503" filterUnits="userSpaceOnUse" color-interpolation-filters="sRGB">
<feFlood flood-opacity="0" result="BackgroundImageFix"/>
<feBlend mode="normal" in="SourceGraphic" in2="BackgroundImageFix" result="shape"/>
<feGaussianBlur stdDeviation="22.3333" result="effect1_foregroundBlur_59_66"/>
</filter>
<filter id="filter2_f_59_66" x="-38.5807" y="-25.0287" width="82.8566" height="82.8567" filterUnits="userSpaceOnUse" color-interpolation-filters="sRGB">
<feFlood flood-opacity="0" result="BackgroundImageFix"/>
<feBlend mode="normal" in="SourceGraphic" in2="BackgroundImageFix" result="shape"/>
<feGaussianBlur stdDeviation="17.8667" result="effect1_foregroundBlur_59_66"/>
</filter>
</defs>
</svg>
